<svg id="Layer_1" xmlns="http://www.w3.org/2000/svg" viewBox="0 0 500 500" class="h-20 w-20"><defs><style>
          .cls-1{fill:#f2f2f2;opacity:0;}.cls-1,.cls-2{stroke-width:0px;}.cls-2{fill:#fff;} /* Changed to white */
        </style></defs><rect class="cls-1" width="500" height="500"></rect><path class="cls-2" d="m246.94,96.68h20.01c22.98,0,45.97,0,68.95,0,13.15,0,26.29-.02,39.44-.08,10.79-.05,21.59-.13,32.38-.3,4.5-.07,9.01-.2,13.5-.61,4.33-.39,8.65.09,12.8,1.37,4.09,1.26,6.89,3.89,7.74,8.26.27,1.38.24,2.77.02,4.15-.45,2.82-1.38,5.46-2.76,7.97-3.29,5.99-7,11.67-11.62,16.75-6.86,7.53-15.34,12.15-25.23,14.3-4.61,1-9.28,1.46-13.99,1.46-24.66,0-49.33,0-73.99,0-52.06,0-104.12-.02-156.18-.02-22.74,0-45.49.03-68.23.04-.81,0-1.64,0-2.44-.13-2.52-.41-4.4-1.75-5.69-3.98-2.71-4.69-5.46-9.36-8.19-14.04-2.99-5.14-5.95-10.3-8.96-15.43-1.46-2.49-2.36-5.15-2.53-8.01-.28-4.68,1.77-8.71,6.3-10.83,1.67-.78,3.44-1.24,5.26-1.38,3.97-.32,7.94-.58,11.93-.58,18.04-.01,36.08-.01,54.12,0,7.77,0,15.55.03,23.32.08,12.38.07,24.75.14,37.13.25,8.92.08,17.84.21,26.77.33,5.71.08,11.41.19,17.12.28,1.01.02,2.01,0,3.02,0,0,.06,0,.11,0,.17Z"></path><path class="cls-2" d="m239.78,255.35c-26.49,0-52.97,0-79.46,0-2.83,0-5.66.04-8.49.1-2.97.06-5.33-.61-6.93-4.29-1.46-3.36-3.46-6.41-5.36-9.52-12.73-20.78-25.13-41.75-37.34-62.84-3.29-5.69-6.72-11.29-10.38-16.75-.42-.62-1.16-1.35-.8-2.03.38-.73,1.39-.35,2.12-.36,3.55-.03,7.1-.01,10.65-.01,23.75-.03,47.5-.06,71.25-.08.96,0,1.92.05,2.87.15,1.42.14,1.94.71,2.01,2.13.05,1.15-.03,2.31.09,3.45.23,2.18,1.01,4.19,2.12,6.06,2.52,4.25,5.01,8.51,7.57,12.74,2.54,4.2,5.8,7.78,9.84,10.56,4.98,3.43,10.2,6.47,15.78,8.87,4.18,1.8,8.57,2.71,13.08,3.18,2.58.27,5.17.29,7.76.29,40.02,0,80.04,0,120.06,0,2.98,0,5.94.2,8.87.8,1.23.25,2.41.63,3.55,1.15,5.41,2.48,7.81,7.53,6.26,13.28-.96,3.56-2.61,6.81-4.74,9.79-7.35,10.27-16.86,17.61-29.1,21.15-5.86,1.7-11.86,2.17-17.93,2.16-27.78-.02-55.56-.01-83.35-.01v.02Z"></path><path class="cls-2" d="m198.34,264.27c13.53,0,27.06,0,40.59,0,.72,0,1.45,0,2.15.1,1.48.23,1.87.71,1.88,2.2.01,1.15-.05,2.3.11,3.45.33,2.4,1.06,4.69,2.24,6.79,2.41,4.31,4.75,8.67,7.64,12.69,8.44,11.73,19.75,18.92,34.01,21.43,3.56.63,7.15.74,10.74.86,2.41.08,4.77.5,7.01,1.4,3.46,1.4,6.07,3.63,7.13,7.36.68,2.39.41,4.75-.29,7.08-.95,3.14-2.31,6.1-3.98,8.91-4.82,8.13-9.7,16.22-14.55,24.33-8.7,14.53-17.39,29.05-26.08,43.58-2.18,3.65-4.95,6.83-7.93,9.83-1.3,1.31-2.92,1.96-4.78,2.04-1.74.07-3.45-.07-5.14-.46-2.52-.58-4.54-1.98-6.26-3.88-3.1-3.43-5.81-7.14-8.18-11.11-14.73-24.66-29.44-49.34-44.18-74-10.04-16.8-20.09-33.59-30.14-50.37-2-3.34-3.65-6.86-5.46-10.29-.09-.17-.17-.35-.22-.53-.24-.82-.04-1.18.78-1.34.37-.07.76-.07,1.15-.07,13.92,0,27.83,0,41.75,0Z"></path></svg>